<svg width="120" height="48" viewBox="0 0 120 48" fill="none" xmlns="http://www.w3.org/2000/svg">
<path d="M0 1.92188C1.09375 1.95313 2 1.97656 2.71875 1.99219C3.45312 1.99219 4.04688 1.99219 4.5 1.99219H5.74219H12.7266C12.7578 2.30469 12.7812 2.60938 12.7969 2.90625C12.8281 3.1875 12.8438 3.4375 12.8438 3.65625C12.8438 3.92188 12.8359 4.16406 12.8203 4.38281C12.8047 4.60156 12.7812 4.83594 12.75 5.08594C12.7188 5.30469 12.6875 5.53906 12.6562 5.78906C12.625 6.03906 12.5703 6.29688 12.4922 6.5625C12.2734 5.71875 11.9766 5.07812 11.6016 4.64062C11.2422 4.20312 10.875 3.88281 10.5 3.67969C10.0625 3.44531 9.60156 3.32031 9.11719 3.30469C8.47656 3.33594 7.97656 3.39062 7.61719 3.46875C7.25781 3.54688 6.97656 3.65625 6.77344 3.79688C6.57031 3.9375 6.41406 4.10156 6.30469 4.28906C6.21094 4.46094 6.10938 4.65625 6 4.875C5.90625 5.0625 5.82031 5.35156 5.74219 5.74219C5.66406 6.07031 5.58594 6.51562 5.50781 7.07812C5.44531 7.64062 5.375 8.36719 5.29688 9.25781C5.71875 9.13281 6.05469 9.01562 6.30469 8.90625C6.57031 8.79688 6.78125 8.70312 6.9375 8.625C7.10938 8.53125 7.23438 8.44531 7.3125 8.36719C7.375 8.27344 7.46875 8.10156 7.59375 7.85156C7.6875 7.63281 7.8125 7.33594 7.96875 6.96094C8.14062 6.58594 8.34375 6.07031 8.57812 5.41406C8.60938 6.13281 8.625 6.73438 8.625 7.21875C8.625 7.6875 8.63281 8.07031 8.64844 8.36719C8.64844 8.71094 8.65625 8.98438 8.67188 9.1875V10.0781C8.67188 10.4062 8.67188 10.8516 8.67188 11.4141C8.6875 11.9609 8.71094 12.6562 8.74219 13.5C8.55469 12.9219 8.38281 12.4688 8.22656 12.1406C8.08594 11.7969 7.96094 11.5391 7.85156 11.3672C7.72656 11.1641 7.61719 11.0234 7.52344 10.9453C7.41406 10.9141 7.26562 10.8828 7.07812 10.8516C6.90625 10.8359 6.6875 10.8281 6.42188 10.8281C6.17188 10.8281 5.85156 10.8672 5.46094 10.9453C5.41406 11.8047 5.40625 12.5 5.4375 13.0312C5.48438 13.5469 5.54688 13.9453 5.625 14.2266C5.70312 14.5547 5.79688 14.7891 5.90625 14.9297C6.04688 15.0703 6.32812 15.1875 6.75 15.2812C7.17188 15.3594 7.64844 15.3906 8.17969 15.375C8.72656 15.3438 9.28125 15.25 9.84375 15.0938C10.4062 14.9375 10.9062 14.6797 11.3438 14.3203C11.6719 14.0234 12.0234 13.6484 12.3984 13.1953C12.7109 12.8047 13.0547 12.3125 13.4297 11.7188C13.8203 11.125 14.2031 10.4062 14.5781 9.5625C14.5156 10.2656 14.4688 10.8516 14.4375 11.3203C14.4219 11.7734 14.3984 12.1406 14.3672 12.4219C14.3359 12.75 14.3125 13 14.2969 13.1719C14.2969 13.3594 14.2734 13.625 14.2266 13.9688C14.1953 14.2656 14.1406 14.6719 14.0625 15.1875C14 15.6875 13.9141 16.3281 13.8047 17.1094C13.0703 17.125 12.375 17.1406 11.7188 17.1562C11.0625 17.1562 10.4844 17.1641 9.98438 17.1797C9.39062 17.1953 8.84375 17.2109 8.34375 17.2266C7.82812 17.2266 7.25781 17.25 6.63281 17.2969C6.08594 17.3281 5.4375 17.375 4.6875 17.4375C3.95312 17.5 3.14062 17.5859 2.25 17.6953C2.32812 16.6328 2.38281 15.6328 2.41406 14.6953C2.46094 13.7422 2.49219 12.9062 2.50781 12.1875C2.52344 11.3438 2.52344 10.5625 2.50781 9.84375C2.58594 8.04688 2.55469 6.59375 2.41406 5.48438C2.27344 4.375 2.10938 3.66406 1.92188 3.35156C1.82812 3.24219 1.69531 3.10938 1.52344 2.95312C1.38281 2.82812 1.1875 2.67969 0.9375 2.50781C0.6875 2.33594 0.375 2.14063 0 1.92188ZM14.1094 5.01562C14.375 5.0625 14.6484 5.10156 14.9297 5.13281C15.1953 5.14844 15.4375 5.16406 15.6562 5.17969C15.9062 5.19531 16.1484 5.20312 16.3828 5.20312C16.6172 5.20312 16.8828 5.19531 17.1797 5.17969C17.4297 5.16406 17.7266 5.14062 18.0703 5.10938C18.4297 5.07812 18.8203 5.03125 19.2422 4.96875C18.9922 5.10938 18.7969 5.25781 18.6562 5.41406C18.5156 5.57031 18.4062 5.71094 18.3281 5.83594C18.2344 5.99219 18.1719 6.13281 18.1406 6.25781C18.1094 6.38281 18.1172 6.64062 18.1641 7.03125C18.2109 7.42188 18.2734 7.875 18.3516 8.39062C18.4453 8.90625 18.5469 9.44531 18.6562 10.0078C18.7656 10.5703 18.875 11.0859 18.9844 11.5547C19.1094 12.0234 19.2188 12.4141 19.3125 12.7266C19.4219 13.0391 19.5078 13.1875 19.5703 13.1719C19.6328 13.1719 19.7266 13.0156 19.8516 12.7031C19.9922 12.3906 20.1484 12.0078 20.3203 11.5547C20.4922 11.0859 20.6719 10.5781 20.8594 10.0312C21.0469 9.46875 21.2109 8.94531 21.3516 8.46094C21.4922 7.97656 21.6016 7.57031 21.6797 7.24219C21.7734 6.89844 21.8125 6.69531 21.7969 6.63281C21.75 6.57031 21.6953 6.48438 21.6328 6.375C21.5234 6.20312 21.2812 5.90625 20.9062 5.48438C21.3594 5.51562 21.75 5.54688 22.0781 5.57812C22.4062 5.59375 22.6719 5.61719 22.875 5.64844C23.1094 5.67969 23.2969 5.70312 23.4375 5.71875C23.5781 5.73438 23.7812 5.73438 24.0469 5.71875C24.2656 5.71875 24.5547 5.71094 24.9141 5.69531C25.2891 5.66406 25.75 5.61719 26.2969 5.55469C25.8906 5.78906 25.5547 6 25.2891 6.1875C25.0391 6.35938 24.8438 6.50781 24.7031 6.63281C24.5312 6.78906 24.4062 6.92188 24.3281 7.03125C24.2188 7.23438 24.0234 7.71875 23.7422 8.48438C23.6172 8.8125 23.4609 9.21875 23.2734 9.70312C23.1016 10.1875 22.8906 10.7734 22.6406 11.4609C22.4062 12.1328 22.125 12.9219 21.7969 13.8281C21.4688 14.7344 21.1016 15.7734 20.6953 16.9453L18.4219 17.1797C18.125 16.1953 17.8828 15.375 17.6953 14.7188C17.5234 14.0469 17.3828 13.5078 17.2734 13.1016C17.1484 12.6328 17.0547 12.2656 16.9922 12C16.9141 11.7031 16.8203 11.2734 16.7109 10.7109C16.6016 10.1328 16.4922 9.54688 16.3828 8.95312C16.2734 8.35938 16.1641 7.82812 16.0547 7.35938C15.9453 6.875 15.8594 6.57812 15.7969 6.46875C15.7344 6.39062 15.625 6.28125 15.4688 6.14062C15.3438 6.01562 15.1719 5.86719 14.9531 5.69531C14.7344 5.50781 14.4531 5.28125 14.1094 5.01562ZM31.1953 14.1562C31.6328 14.1562 32.0391 14.1094 32.4141 14.0156C32.7266 13.9375 33.0234 13.8125 33.3047 13.6406C33.6016 13.4531 33.7969 13.1797 33.8906 12.8203C34.2031 12.8828 34.4688 12.9375 34.6875 12.9844C34.9062 13.0156 35.0938 13.0469 35.25 13.0781C35.4219 13.125 35.5703 13.1562 35.6953 13.1719C35.8203 13.2031 35.9688 13.2344 36.1406 13.2656C36.2969 13.2969 36.4844 13.3359 36.7031 13.3828C36.9375 13.4141 37.2109 13.4609 37.5234 13.5234C37.2891 13.4922 37.0469 13.5156 36.7969 13.5938C36.5625 13.6719 36.3359 13.7578 36.1172 13.8516C35.8672 13.9609 35.6328 14.0938 35.4141 14.25C35.2734 14.3438 35.1094 14.4844 34.9219 14.6719C34.75 14.8594 34.5 15.0391 34.1719 15.2109C33.8438 15.3828 33.4062 15.5312 32.8594 15.6562C32.3281 15.7656 31.6406 15.8047 30.7969 15.7734C29.7812 15.7422 28.9297 15.5625 28.2422 15.2344C27.5547 14.8906 27 14.4766 26.5781 13.9922C26.1562 13.4922 25.8516 12.9531 25.6641 12.375C25.4766 11.7969 25.375 11.2578 25.3594 10.7578C25.3438 10.2578 25.4922 9.73438 25.8047 9.1875C26.1172 8.64062 26.5547 8.14062 27.1172 7.6875C27.6953 7.23438 28.3906 6.86719 29.2031 6.58594C30.0156 6.28906 30.9062 6.14062 31.875 6.14062C32.4375 6.14062 32.9531 6.21094 33.4219 6.35156C33.9062 6.47656 34.3438 6.64844 34.7344 6.86719C35.1406 7.08594 35.4922 7.33594 35.7891 7.61719C36.0859 7.88281 36.3359 8.15625 36.5391 8.4375C36.7422 8.73438 36.9141 9.04688 37.0547 9.375C37.1797 9.65625 37.2812 9.97656 37.3594 10.3359C37.4375 10.6953 37.4609 11.0625 37.4297 11.4375C36.2422 11.4688 35.2812 11.4922 34.5469 11.5078C33.8281 11.5234 33.2656 11.5312 32.8594 11.5312H31.8047H31.0078C30.7266 11.5312 30.3594 11.5391 29.9062 11.5547C29.4531 11.5703 28.8984 11.5938 28.2422 11.625C28.3203 12.25 28.5156 12.7344 28.8281 13.0781C29.1562 13.4062 29.5 13.6562 29.8594 13.8281C30.2656 14.0156 30.7109 14.125 31.1953 14.1562ZM29.0859 9.9375C29.5859 9.96875 30 9.99219 30.3281 10.0078C30.6719 10.0234 30.9531 10.0391 31.1719 10.0547C31.4062 10.0703 31.5938 10.0781 31.7344 10.0781H32.3203C32.7109 10.0781 33.4375 10.0547 34.5 10.0078C34.4531 9.32031 34.3047 8.79688 34.0547 8.4375C33.8203 8.07812 33.5703 7.8125 33.3047 7.64062C32.9922 7.45312 32.6484 7.34375 32.2734 7.3125C31.2578 7.32812 30.5 7.53906 30 7.94531C29.5156 8.35156 29.2109 9.01562 29.0859 9.9375ZM38.1328 6.70312C38.4297 6.71875 38.6953 6.72656 38.9297 6.72656C39.1797 6.71094 39.3906 6.69531 39.5625 6.67969C39.7656 6.66406 39.9453 6.64844 40.1016 6.63281C40.3359 6.60156 40.5781 6.5625 40.8281 6.51562C41.0469 6.48438 41.2734 6.44531 41.5078 6.39844C41.7578 6.33594 42 6.26562 42.2344 6.1875C42.1406 6.42188 42.0625 6.625 42 6.79688C41.9375 6.96875 41.8906 7.11719 41.8594 7.24219C41.8125 7.38281 41.7891 7.5 41.7891 7.59375C41.7734 7.70312 41.7656 7.83594 41.7656 7.99219C41.75 8.25781 41.75 8.6875 41.7656 9.28125C42.5781 8.57812 43.2578 8.03125 43.8047 7.64062C44.3672 7.25 44.8125 6.94531 45.1406 6.72656C45.5312 6.47656 45.8359 6.3125 46.0547 6.23438C46.6328 6.14062 47.1406 6.27344 47.5781 6.63281C47.7656 6.78906 47.9453 7 48.1172 7.26562C48.2891 7.51562 48.4375 7.85156 48.5625 8.27344C48.6875 8.69531 48.7812 9.20312 48.8438 9.79688C48.9062 10.375 48.9141 11.0703 48.8672 11.8828C48.5391 11.9141 48.2422 11.9453 47.9766 11.9766C47.7266 12.0078 47.5156 12.0312 47.3438 12.0469C47.1406 12.0781 46.9531 12.0938 46.7812 12.0938L46.1484 12.1641C45.9297 12.1953 45.6562 12.2266 45.3281 12.2578C45.0156 12.2734 44.6328 12.3047 44.1797 12.3516C44.8359 11.8203 45.2578 11.3594 45.4453 10.9688C45.6484 10.5625 45.7344 10.2266 45.7031 9.96094C45.6719 9.66406 45.5312 9.40625 45.2812 9.1875C44.9844 9.01562 44.6641 8.95312 44.3203 9C44.0234 9.03125 43.6797 9.16406 43.2891 9.39844C42.8984 9.63281 42.4844 10.0703 42.0469 10.7109C42.0781 11.7109 42.1094 12.5391 42.1406 13.1953C42.1875 13.8516 42.2266 14.3828 42.2578 14.7891C42.3047 15.2578 42.3438 15.625 42.375 15.8906C42.4219 16.125 42.5156 16.375 42.6562 16.6406C42.7656 16.8594 42.9219 17.1016 43.125 17.3672C43.3281 17.6328 43.5938 17.8984 43.9219 18.1641C43.2344 18.1328 42.6719 18.1328 42.2344 18.1641C41.9688 18.1797 41.7344 18.1953 41.5312 18.2109C41.3125 18.2422 41.0781 18.2734 40.8281 18.3047C40.6094 18.3359 40.3516 18.3672 40.0547 18.3984C39.7734 18.4453 39.4609 18.4922 39.1172 18.5391C39.2422 18.3672 39.3438 18.1641 39.4219 17.9297C39.5 17.7109 39.5625 17.5 39.6094 17.2969C39.6719 17.0625 39.7188 16.8203 39.75 16.5703C39.7656 16.3516 39.7734 16.0234 39.7734 15.5859C39.7891 15.1484 39.7812 14.6562 39.75 14.1094C39.7344 13.5469 39.7109 12.9688 39.6797 12.375C39.6484 11.7656 39.6094 11.1953 39.5625 10.6641C39.5156 10.1328 39.4609 9.67188 39.3984 9.28125C39.3516 8.875 39.2969 8.59375 39.2344 8.4375C39.1562 8.25 39.0625 8.0625 38.9531 7.875C38.8594 7.70312 38.7422 7.52344 38.6016 7.33594C38.4609 7.13281 38.3047 6.92188 38.1328 6.70312ZM48.6562 5.95312C48.9688 6 49.25 6.03906 49.5 6.07031C49.7344 6.08594 49.9453 6.10156 50.1328 6.11719C50.3359 6.13281 50.5312 6.14062 50.7188 6.14062C50.8906 6.14062 51.1094 6.13281 51.375 6.11719C51.5938 6.10156 51.875 6.08594 52.2188 6.07031C52.5781 6.03906 53 6 53.4844 5.95312C53.4531 6.01562 53.3906 6.21094 53.2969 6.53906C53.2031 6.85156 53.1094 7.24219 53.0156 7.71094C52.9219 8.16406 52.8359 8.67188 52.7578 9.23438C52.6953 9.78125 52.6641 10.3281 52.6641 10.875C52.6797 11.4062 52.75 11.9141 52.875 12.3984C53 12.8672 53.2031 13.25 53.4844 13.5469C54.0781 14.1562 54.6016 14.5234 55.0547 14.6484C55.5234 14.7734 55.9297 14.7578 56.2734 14.6016C56.6172 14.4453 56.8984 14.2109 57.1172 13.8984C57.3359 13.5859 57.4922 13.2969 57.5859 13.0312C57.8203 12.3125 57.9609 11.5547 58.0078 10.7578C58.0391 10.0703 57.9844 9.30469 57.8438 8.46094C57.7031 7.61719 57.3672 6.75781 56.8359 5.88281C57.2422 5.91406 57.5938 5.9375 57.8906 5.95312C58.1875 5.96875 58.4453 5.98438 58.6641 6C58.9141 6.01562 59.1328 6.03125 59.3203 6.04688C59.4922 6.0625 59.6953 6.0625 59.9297 6.04688C60.1328 6.04688 60.375 6.03906 60.6562 6.02344C60.9531 5.99219 61.2812 5.96094 61.6406 5.92969C61.7031 7.46094 61.7578 8.82812 61.8047 10.0312C61.8516 11.2188 61.8828 12.2734 61.8984 13.1953C61.9297 14.1016 61.9453 14.8906 61.9453 15.5625C61.9453 16.2188 61.9453 16.7734 61.9453 17.2266C61.9297 18.3047 61.8828 19.0156 61.8047 19.3594C61.6797 19.8438 61.4531 20.3281 61.125 20.8125C60.8125 21.2969 60.4141 21.7266 59.9297 22.1016C59.4453 22.4922 58.8828 22.7891 58.2422 22.9922C57.6172 23.2109 56.9297 23.2891 56.1797 23.2266C55.4453 23.1641 54.8594 23.0625 54.4219 22.9219C54 22.7969 53.6641 22.6484 53.4141 22.4766C53.1797 22.3047 53.0078 22.125 52.8984 21.9375C52.8047 21.75 52.7344 21.5547 52.6875 21.3516C52.6406 21.1641 52.5938 20.9844 52.5469 20.8125C52.5 20.6406 52.4062 20.4922 52.2656 20.3672C52.0938 20.2266 51.9141 20.0859 51.7266 19.9453C51.5547 19.8203 51.3672 19.6953 51.1641 19.5703C50.9766 19.4453 50.7891 19.3438 50.6016 19.2656L55.5938 18.9844C55.4531 19.1719 55.3516 19.3438 55.2891 19.5C55.2266 19.6562 55.1875 19.7891 55.1719 19.8984C55.1562 20.0391 55.1641 20.1562 55.1953 20.25C55.2578 20.4375 55.3672 20.6406 55.5234 20.8594C55.6953 21.0938 55.9141 21.2734 56.1797 21.3984C56.4453 21.5391 56.7578 21.5859 57.1172 21.5391C57.4922 21.4922 57.9141 21.2969 58.3828 20.9531C58.7734 20.6562 59.1016 20.1797 59.3672 19.5234C59.5859 18.9609 59.7578 18.1719 59.8828 17.1562C60.0078 16.1406 59.9844 14.8047 59.8125 13.1484C59.5312 14.1172 59.1484 14.8594 58.6641 15.375C58.1797 15.8906 57.6953 16.2656 57.2109 16.5C56.6484 16.7812 56.0625 16.9297 55.4531 16.9453C54.6406 16.9141 53.9453 16.8125 53.3672 16.6406C52.7891 16.4531 52.3125 16.2031 51.9375 15.8906C51.5625 15.5781 51.2656 15.2109 51.0469 14.7891C50.8438 14.3516 50.6953 13.8672 50.6016 13.3359C50.5078 12.8047 50.4609 12.2734 50.4609 11.7422C50.4609 11.1953 50.4609 10.6875 50.4609 10.2188C50.4766 9.75 50.4844 9.32812 50.4844 8.95312C50.4844 8.5625 50.4453 8.25 50.3672 8.01562C50.2734 7.78125 50.1484 7.54688 49.9922 7.3125C49.8672 7.10938 49.6953 6.89062 49.4766 6.65625C49.2422 6.40625 48.9688 6.17188 48.6562 5.95312ZM63.2344 3.16406C63.7031 3.21094 64.0938 3.25 64.4062 3.28125C64.7344 3.3125 65 3.33594 65.2031 3.35156C65.4375 3.36719 65.625 3.375 65.7656 3.375C65.9062 3.39062 66.0938 3.39062 66.3281 3.375C66.5312 3.35938 66.7969 3.34375 67.125 3.32812C67.4531 3.29688 67.8672 3.25 68.3672 3.1875C68.2578 3.34375 68.1719 3.48438 68.1094 3.60938C68.0469 3.71875 67.9922 3.82031 67.9453 3.91406L67.8047 4.19531C67.7734 4.28906 67.7422 4.38281 67.7109 4.47656C67.6797 4.55469 67.6484 4.64844 67.6172 4.75781C67.6016 4.86719 67.5859 4.98438 67.5703 5.10938H71.1797L70.8516 7.00781L67.5469 6.82031C67.4688 7.61719 67.4141 8.23438 67.3828 8.67188C67.3516 9.10938 67.3203 9.42969 67.2891 9.63281L67.2422 10.0547C67.1953 10.6484 67.1484 11.2969 67.1016 12C67.0547 12.6875 67.0391 13.3281 67.0547 13.9219C67.0703 14.5156 67.125 15.0156 67.2188 15.4219C67.3125 15.8125 67.4766 16.0078 67.7109 16.0078C67.9453 16.0078 68.1641 15.9453 68.3672 15.8203C68.5703 15.6953 68.7422 15.5469 68.8828 15.375C69.0391 15.2031 69.1562 15.0312 69.2344 14.8594C69.3125 14.6719 69.3516 14.5312 69.3516 14.4375C69.3516 14.3438 69.3281 14.2344 69.2812 14.1094C69.2031 13.875 69.0625 13.5781 68.8594 13.2188C69.3125 13.3281 69.7109 13.4375 70.0547 13.5469C70.2266 13.6094 70.3828 13.6719 70.5234 13.7344C70.6797 13.7969 70.8594 13.8672 71.0625 13.9453C71.2344 14.0234 71.4531 14.1172 71.7188 14.2266C71.9844 14.3359 72.2969 14.4688 72.6562 14.625C72.3125 14.6875 72.0625 14.7891 71.9062 14.9297C71.8125 14.9922 71.7422 15.0625 71.6953 15.1406C71.5859 15.3125 71.4609 15.5469 71.3203 15.8438C71.1797 16.125 70.9688 16.4062 70.6875 16.6875C70.4062 16.9688 70.0234 17.2188 69.5391 17.4375C69.0703 17.6562 68.4375 17.7812 67.6406 17.8125C66.8125 17.8438 66.1797 17.7031 65.7422 17.3906C65.3203 17.0781 65.0078 16.7188 64.8047 16.3125C64.6172 15.8906 64.5078 15.4766 64.4766 15.0703C64.4453 14.6641 64.4219 14.3906 64.4062 14.25C64.3906 14.1094 64.3906 13.7578 64.4062 13.1953C64.4219 12.6328 64.4453 12.0156 64.4766 11.3438C64.5078 10.6562 64.5391 10 64.5703 9.375C64.6016 8.73438 64.6172 8.26562 64.6172 7.96875C64.6172 7.8125 64.625 7.64844 64.6406 7.47656C64.6406 7.33594 64.6406 7.1875 64.6406 7.03125C64.6562 6.85938 64.6641 6.69531 64.6641 6.53906L61.2656 6.51562L61.125 5.17969L64.5469 5.27344C64.5156 5.10156 64.4766 4.94531 64.4297 4.80469C64.3984 4.64844 64.3672 4.52344 64.3359 4.42969C64.2891 4.32031 64.2422 4.22656 64.1953 4.14844C64.1328 4.07031 64.0625 3.98438 63.9844 3.89062C63.9062 3.8125 63.8047 3.71094 63.6797 3.58594C63.5547 3.46094 63.4062 3.32031 63.2344 3.16406ZM71.5781 0.164062C71.9375 0.226562 72.2656 0.273437 72.5625 0.304688C72.8594 0.320312 73.1094 0.335938 73.3125 0.351562C73.5469 0.367187 73.75 0.375 73.9219 0.375C74.1562 0.359375 74.4297 0.335938 74.7422 0.304688C75.0078 0.273437 75.3281 0.234375 75.7031 0.1875C76.0938 0.140625 76.5391 0.078125 77.0391 0C76.8047 0.125 76.6094 0.25 76.4531 0.375C76.2969 0.484375 76.1719 0.601562 76.0781 0.726562C75.9688 0.867188 75.8828 1 75.8203 1.125C75.7422 1.32812 75.6562 1.75 75.5625 2.39062C75.4688 2.9375 75.3516 3.75 75.2109 4.82812C75.0859 5.90625 74.9219 7.36719 74.7188 9.21094C75.2812 8.64844 75.8125 8.22656 76.3125 7.94531C76.8281 7.64844 77.2812 7.4375 77.6719 7.3125C78.125 7.17188 78.5469 7.10156 78.9375 7.10156C79.4219 7.14844 79.9141 7.30469 80.4141 7.57031C80.9297 7.82031 81.4062 8.11719 81.8438 8.46094C82.2969 8.80469 82.6875 9.17188 83.0156 9.5625C83.3594 9.95312 83.6016 10.2969 83.7422 10.5938C83.8359 10.7969 83.8828 11.0625 83.8828 11.3906C83.8828 11.7031 83.8516 12.0469 83.7891 12.4219C83.7266 12.7969 83.6406 13.1797 83.5312 13.5703C83.4219 13.9609 83.3125 14.3281 83.2031 14.6719C83.1094 15.0156 83.0234 15.3203 82.9453 15.5859C82.8672 15.8359 82.8203 16.0156 82.8047 16.125C82.7734 16.3594 82.7891 16.5859 82.8516 16.8047C82.8984 16.9922 82.9922 17.1953 83.1328 17.4141C83.2734 17.6172 83.4844 17.7891 83.7656 17.9297C83.5469 17.8984 83.3125 17.875 83.0625 17.8594C82.8281 17.8281 82.6016 17.8047 82.3828 17.7891C82.1328 17.7734 81.8828 17.7656 81.6328 17.7656H80.7891C80.5234 17.7656 80.2188 17.7734 79.875 17.7891C79.5312 17.7891 79.1562 17.7969 78.75 17.8125C78.9688 17.7344 79.1562 17.6328 79.3125 17.5078C79.4688 17.3672 79.6016 17.2344 79.7109 17.1094C79.8359 16.9688 79.9453 16.8203 80.0391 16.6641C80.1016 16.5391 80.1797 16.3047 80.2734 15.9609C80.3672 15.6016 80.4531 15.1953 80.5312 14.7422C80.6094 14.2734 80.6641 13.7812 80.6953 13.2656C80.7422 12.75 80.75 12.2578 80.7188 11.7891C80.7031 11.3047 80.6328 10.875 80.5078 10.5C80.3984 10.125 80.2266 9.85156 79.9922 9.67969C79.2891 9.14844 78.6484 8.89062 78.0703 8.90625C77.5078 8.90625 76.9688 9.13281 76.4531 9.58594C76.2656 9.75781 76.0859 9.92969 75.9141 10.1016C75.7578 10.2578 75.5859 10.4453 75.3984 10.6641C75.2109 10.8672 75.0391 11.0781 74.8828 11.2969C74.8828 11.5312 74.8906 11.7891 74.9062 12.0703C74.9219 12.3516 74.9375 12.625 74.9531 12.8906C74.9688 13.1875 74.9922 13.4844 75.0234 13.7812C75.0547 14.2344 75.1016 14.6797 75.1641 15.1172C75.2109 15.4922 75.2734 15.9062 75.3516 16.3594C75.4297 16.7969 75.5312 17.1953 75.6562 17.5547C75.4531 17.5234 75.2422 17.5156 75.0234 17.5312C74.8047 17.5312 74.5938 17.5312 74.3906 17.5312C74.1562 17.5469 73.9297 17.5547 73.7109 17.5547C73.5078 17.5703 73.2969 17.5938 73.0781 17.625C72.8906 17.6562 72.6875 17.6875 72.4688 17.7188C72.25 17.7344 72.0391 17.7656 71.8359 17.8125C72.0234 17.4531 72.1797 17.1016 72.3047 16.7578C72.4297 16.3984 72.5312 16.0859 72.6094 15.8203C72.7031 15.5078 72.7812 15.2031 72.8438 14.9062C72.8906 14.6719 72.9219 14.2266 72.9375 13.5703C72.9688 12.8984 72.9922 12.1328 73.0078 11.2734C73.0234 10.3984 73.0312 9.47656 73.0312 8.50781C73.0312 7.53906 73.0234 6.61719 73.0078 5.74219C72.9922 4.86719 72.9609 4.10156 72.9141 3.44531C72.8828 2.78906 72.8438 2.33594 72.7969 2.08594C72.7344 1.83594 72.6484 1.58594 72.5391 1.33594C72.4453 1.11719 72.3203 0.90625 72.1641 0.703125C72.0078 0.484375 71.8125 0.304688 71.5781 0.164062ZM85.0547 7.45312L89.3672 7.5C89.1172 8.45312 88.9297 9.26562 88.8047 9.9375C88.6953 10.6094 88.625 11.1719 88.5938 11.625C88.5312 12.1406 88.5156 12.5781 88.5469 12.9375C88.5938 13.2656 88.6719 13.6172 88.7812 13.9922C88.875 14.3047 89.0156 14.6641 89.2031 15.0703C89.3906 15.4766 89.6406 15.8828 89.9531 16.2891C89.7656 16.2266 89.5625 16.1797 89.3438 16.1484C89.125 16.1172 88.9219 16.0938 88.7344 16.0781C88.5156 16.0625 88.2969 16.0625 88.0781 16.0781C87.8594 16.0938 87.6172 16.1172 87.3516 16.1484C87.1328 16.1797 86.8672 16.2188 86.5547 16.2656C86.2422 16.3125 85.9141 16.375 85.5703 16.4531C85.8047 15.75 85.9844 15.1406 86.1094 14.625C86.25 14.1094 86.3516 13.6797 86.4141 13.3359C86.4766 12.9297 86.5156 12.6016 86.5312 12.3516C86.5312 12.0391 86.5312 11.6875 86.5312 11.2969C86.5312 10.8906 86.5312 10.5 86.5312 10.125C86.5312 9.75 86.5234 9.42188 86.5078 9.14062C86.4922 8.84375 86.4609 8.65625 86.4141 8.57812L86.1797 8.34375C86.0859 8.26562 85.9453 8.15625 85.7578 8.01562C85.5859 7.85938 85.3516 7.67188 85.0547 7.45312ZM86.7188 3.84375C87.0469 3.67188 87.375 3.625 87.7031 3.70312C88.0469 3.78125 88.3125 3.92969 88.5 4.14844C88.6875 4.36719 88.75 4.625 88.6875 4.92188C88.6406 5.21875 88.3906 5.50781 87.9375 5.78906C87.4844 6.05469 87.0859 6.14844 86.7422 6.07031C86.3984 5.99219 86.1562 5.82812 86.0156 5.57812C85.875 5.32812 85.8516 5.03906 85.9453 4.71094C86.0391 4.36719 86.2969 4.07812 86.7188 3.84375ZM91.5234 15.3516C91.6328 14.8359 91.7109 14.3828 91.7578 13.9922C91.8203 13.5859 91.8672 13.25 91.8984 12.9844C91.9297 12.6719 91.9453 12.4062 91.9453 12.1875C91.9297 11.9219 91.9141 11.6094 91.8984 11.25C91.8984 10.875 91.8828 10.5078 91.8516 10.1484C91.8359 9.77344 91.8125 9.44531 91.7812 9.16406C91.75 8.86719 91.7109 8.65625 91.6641 8.53125C91.6016 8.40625 91.5156 8.27344 91.4062 8.13281C91.1875 7.86719 90.8672 7.60938 90.4453 7.35938C90.8047 7.28125 91.1094 7.21875 91.3594 7.17188C91.625 7.10938 91.8438 7.05469 92.0156 7.00781C92.2031 6.94531 92.3672 6.89062 92.5078 6.84375C92.6328 6.79688 92.7812 6.75 92.9531 6.70312C93.0938 6.67188 93.2656 6.63281 93.4688 6.58594C93.6719 6.53906 93.9062 6.48438 94.1719 6.42188L94.1016 8.55469C94.6016 7.96094 95.1094 7.51562 95.625 7.21875C96.1406 6.92188 96.625 6.71094 97.0781 6.58594C97.5938 6.42969 98.1016 6.35156 98.6016 6.35156C99.2266 6.38281 99.8047 6.48438 100.336 6.65625C100.883 6.82812 101.352 7.03125 101.742 7.26562C102.148 7.48438 102.477 7.71875 102.727 7.96875C102.977 8.21875 103.125 8.4375 103.172 8.625C103.359 9.23438 103.406 9.79688 103.312 10.3125C103.219 10.8125 103.094 11.3047 102.938 11.7891C102.797 12.2578 102.672 12.7266 102.562 13.1953C102.469 13.6641 102.508 14.1719 102.68 14.7188C102.742 14.8594 102.805 15 102.867 15.1406C102.93 15.2656 103.008 15.3906 103.102 15.5156C103.195 15.6406 103.305 15.7422 103.43 15.8203C103.258 15.8047 103.086 15.7969 102.914 15.7969C102.742 15.7812 102.586 15.7656 102.445 15.75C102.273 15.7344 102.117 15.7188 101.977 15.7031C101.82 15.6875 101.609 15.6797 101.344 15.6797C100.891 15.6797 100.188 15.7031 99.2344 15.75C99.375 15.4219 99.4844 15.1484 99.5625 14.9297C99.6562 14.6953 99.7344 14.5078 99.7969 14.3672C99.8594 14.1953 99.9062 14.0625 99.9375 13.9688C100.125 13.5156 100.234 13 100.266 12.4219C100.312 11.8438 100.273 11.2578 100.148 10.6641C100.102 10.4609 100.023 10.2188 99.9141 9.9375C99.8047 9.65625 99.6562 9.38281 99.4688 9.11719C99.2969 8.85156 99.0859 8.625 98.8359 8.4375C98.6016 8.25 98.3281 8.14062 98.0156 8.10938C97.7031 8.07812 97.3516 8.15625 96.9609 8.34375C96.5859 8.53125 96.1797 8.875 95.7422 9.375C95.4141 9.79688 95.1562 10.3125 94.9688 10.9219C94.7969 11.4375 94.6797 12.0859 94.6172 12.8672C94.5547 13.6328 94.6484 14.5312 94.8984 15.5625C94.6797 15.5312 94.4766 15.5156 94.2891 15.5156C94.1016 15.5 93.9453 15.4844 93.8203 15.4688C93.6641 15.4531 93.5234 15.4375 93.3984 15.4219C93.2578 15.4219 93.1016 15.4141 92.9297 15.3984C92.7734 15.3984 92.5781 15.3984 92.3438 15.3984C92.1094 15.3828 91.8359 15.3672 91.5234 15.3516ZM115.922 7.99219C115.875 7.67969 115.836 7.42188 115.805 7.21875C115.773 7 115.742 6.82812 115.711 6.70312C115.68 6.54688 115.656 6.42969 115.641 6.35156C115.609 6.27344 115.57 6.1875 115.523 6.09375C115.492 6.01562 115.438 5.92188 115.359 5.8125C115.297 5.70312 115.219 5.57812 115.125 5.4375C115.328 5.5 115.531 5.53906 115.734 5.55469C115.953 5.57031 116.156 5.58594 116.344 5.60156C116.547 5.61719 116.758 5.61719 116.977 5.60156C117.195 5.60156 117.445 5.59375 117.727 5.57812C117.977 5.5625 118.273 5.55469 118.617 5.55469C118.977 5.53906 119.383 5.51562 119.836 5.48438C119.57 5.54688 119.344 5.65625 119.156 5.8125C118.984 5.95312 118.836 6.10938 118.711 6.28125C118.57 6.46875 118.453 6.67188 118.359 6.89062C118.281 7.09375 118.234 7.48438 118.219 8.0625C118.203 8.625 118.203 9.29688 118.219 10.0781C118.234 10.8438 118.25 11.6719 118.266 12.5625C118.297 13.4531 118.312 14.3047 118.312 15.1172C118.328 15.9297 118.328 16.6719 118.312 17.3438C118.297 18 118.258 18.4844 118.195 18.7969C117.977 19.7812 117.57 20.5781 116.977 21.1875C116.383 21.8125 115.602 22.1484 114.633 22.1953C113.461 22.2422 112.531 22.1328 111.844 21.8672C111.172 21.6016 110.648 21.2734 110.273 20.8828C109.898 20.5078 109.617 20.125 109.43 19.7344C109.242 19.3438 109.047 19.0469 108.844 18.8438C108.656 18.6719 108.469 18.5078 108.281 18.3516C108.109 18.2266 107.93 18.1016 107.742 17.9766C107.57 17.8516 107.398 17.7734 107.227 17.7422C107.68 17.7578 108.086 17.7656 108.445 17.7656C108.805 17.7656 109.109 17.7656 109.359 17.7656C109.641 17.7656 109.891 17.7578 110.109 17.7422H110.859H112.992C112.68 17.8359 112.445 17.9375 112.289 18.0469C112.133 18.1719 112.023 18.2969 111.961 18.4219C111.898 18.5625 111.867 18.7031 111.867 18.8438C111.93 19.2188 112.133 19.4922 112.477 19.6641C112.82 19.8359 113.289 19.9375 113.883 19.9688C114.461 20 114.859 19.9844 115.078 19.9219C115.297 19.875 115.469 19.7812 115.594 19.6406C115.844 19.2656 116.055 18.7812 116.227 18.1875C116.352 17.6875 116.438 17.0391 116.484 16.2422C116.547 15.4297 116.477 14.4375 116.273 13.2656C115.773 13.9531 115.195 14.4688 114.539 14.8125C113.883 15.1562 113.258 15.4062 112.664 15.5625C111.961 15.7344 111.25 15.8203 110.531 15.8203C108.641 15.7422 107.227 15.3047 106.289 14.5078C105.352 13.7109 104.922 12.6406 105 11.2969C105.047 10.625 105.25 9.95312 105.609 9.28125C105.984 8.60938 106.469 8.00781 107.062 7.47656C107.672 6.94531 108.367 6.52344 109.148 6.21094C109.93 5.89844 110.742 5.76562 111.586 5.8125C112.227 5.875 112.828 5.99219 113.391 6.16406C113.875 6.32031 114.352 6.53906 114.82 6.82031C115.305 7.10156 115.672 7.49219 115.922 7.99219ZM108.469 10.3359C108.375 10.9453 108.414 11.5156 108.586 12.0469C108.773 12.5781 109.031 13.0391 109.359 13.4297C109.688 13.8047 110.055 14.1016 110.461 14.3203C110.867 14.5234 111.25 14.6172 111.609 14.6016C112.359 14.5859 113.008 14.25 113.555 13.5938C114.102 12.9219 114.43 11.9219 114.539 10.5938C114.586 9.9375 114.5 9.375 114.281 8.90625C114.078 8.42188 113.82 8.03125 113.508 7.73438C113.195 7.4375 112.867 7.22656 112.523 7.10156C112.18 6.97656 111.906 6.92188 111.703 6.9375C111.422 6.96875 111.109 7.05469 110.766 7.19531C110.438 7.32031 110.117 7.51562 109.805 7.78125C109.492 8.03125 109.211 8.36719 108.961 8.78906C108.727 9.21094 108.562 9.72656 108.469 10.3359ZM29.8242 29.6094C30.3711 29.6094 30.8633 29.7031 31.3008 29.8906C31.7539 30.0625 32.168 30.2578 32.543 30.4766C32.9336 30.6953 33.3008 30.8984 33.6445 31.0859C33.9883 31.2578 34.3398 31.3438 34.6992 31.3438C34.9805 31.3281 35.3008 31.2891 35.6602 31.2266C35.9727 31.1641 36.332 31.0703 36.7383 30.9453C37.1602 30.8047 37.6289 30.6016 38.1445 30.3359C37.6289 30.8359 37.207 31.2578 36.8789 31.6016C36.5664 31.9297 36.3242 32.2031 36.1523 32.4219C35.9492 32.6719 35.8008 32.8672 35.707 33.0078C35.6133 33.1797 35.4727 33.4375 35.2852 33.7812C35.1133 34.0938 34.8789 34.5156 34.582 35.0469C34.2852 35.5625 33.9102 36.2422 33.457 37.0859C33.457 36.0078 33.3477 35.1719 33.1289 34.5781C32.9258 33.9844 32.6992 33.5312 32.4492 33.2188C32.1523 32.8594 31.8164 32.6328 31.4414 32.5391C31.0977 32.4922 30.7539 32.5547 30.4102 32.7266C30.0664 32.8828 29.7227 33.1172 29.3789 33.4297C29.0508 33.7422 28.7305 34.1172 28.418 34.5547C28.1211 34.9766 27.8477 35.4219 27.5977 35.8906C27.3633 36.3594 27.168 36.8359 27.0117 37.3203C26.8555 37.7891 26.7539 38.2266 26.707 38.6328C26.6602 38.9922 26.6523 39.4141 26.6836 39.8984C26.7148 40.3672 26.7852 40.8516 26.8945 41.3516C27.0039 41.8359 27.1445 42.3125 27.3164 42.7812C27.4883 43.25 27.6992 43.6719 27.9492 44.0469C28.2148 44.4062 28.5117 44.7031 28.8398 44.9375C29.168 45.1562 29.543 45.2578 29.9648 45.2422C30.4336 45.2109 30.8945 45.0703 31.3477 44.8203C31.7383 44.6172 32.1367 44.3047 32.543 43.8828C32.9492 43.4453 33.3008 42.8281 33.5977 42.0312L37.0664 42.6641C36.0664 43.8828 35.0898 44.7969 34.1367 45.4062C33.1992 46.0156 32.3555 46.4453 31.6055 46.6953C30.7305 46.9766 29.9023 47.1094 29.1211 47.0938C28.1367 46.9844 27.2148 46.6875 26.3555 46.2031C25.4961 45.7188 24.7539 45.1328 24.1289 44.4453C23.5195 43.7422 23.043 42.9766 22.6992 42.1484C22.3555 41.3203 22.207 40.5078 22.2539 39.7109C22.2852 39.1797 22.3945 38.5625 22.582 37.8594C22.7695 37.1406 23.0195 36.4062 23.332 35.6562C23.6602 34.9062 24.0508 34.1719 24.5039 33.4531C24.957 32.7344 25.457 32.0938 26.0039 31.5312C26.5508 30.9531 27.1445 30.4922 27.7852 30.1484C28.4414 29.7891 29.1211 29.6094 29.8242 29.6094ZM43.1133 36.4297C43.5195 36.4297 43.9414 36.5078 44.3789 36.6641C44.8164 36.8047 45.2383 36.9922 45.6445 37.2266C46.0508 37.4453 46.418 37.6875 46.7461 37.9531C47.0898 38.2031 47.3711 38.4453 47.5898 38.6797C47.9805 39.1016 48.2461 39.6719 48.3867 40.3906C48.543 41.0938 48.5742 41.8203 48.4805 42.5703C48.3867 43.3047 48.168 44 47.8242 44.6562C47.4805 45.3125 47.0039 45.7969 46.3945 46.1094C45.957 46.3281 45.5273 46.5 45.1055 46.625C44.6836 46.75 44.2773 46.8438 43.8867 46.9062C43.4961 46.9688 43.1289 47 42.7852 47C42.4414 47 42.1445 46.9922 41.8945 46.9766C41.4258 46.9453 40.9336 46.7812 40.418 46.4844C39.918 46.1875 39.4414 45.8203 38.9883 45.3828C38.5508 44.9453 38.1758 44.4688 37.8633 43.9531C37.5508 43.4219 37.3633 42.9219 37.3008 42.4531C37.207 41.8125 37.1914 41.1406 37.2539 40.4375C37.3164 39.7344 37.543 39.0859 37.9336 38.4922C38.3398 37.8984 38.9492 37.4062 39.7617 37.0156C40.5898 36.625 41.707 36.4297 43.1133 36.4297ZM42.3398 45.5234C42.5117 45.5547 42.7461 45.5156 43.043 45.4062C43.3398 45.2812 43.6289 45.0859 43.9102 44.8203C44.207 44.5547 44.4648 44.2188 44.6836 43.8125C44.918 43.3906 45.0586 42.8828 45.1055 42.2891C45.1523 41.7109 45.1523 41.1797 45.1055 40.6953C45.0742 40.2109 45.0039 39.7891 44.8945 39.4297C44.7852 39.0547 44.6602 38.75 44.5195 38.5156C44.3789 38.2812 44.2305 38.1172 44.0742 38.0234C43.8086 37.8828 43.4883 37.7734 43.1133 37.6953C42.7383 37.6016 42.418 37.6172 42.1523 37.7422C42.0273 37.8047 41.8711 37.9375 41.6836 38.1406C41.4961 38.3438 41.3086 38.6016 41.1211 38.9141C40.9336 39.2109 40.7617 39.5547 40.6055 39.9453C40.4648 40.3359 40.3633 40.7422 40.3008 41.1641C40.2383 41.5859 40.2227 42.0391 40.2539 42.5234C40.3008 43.0078 40.4023 43.4688 40.5586 43.9062C40.7148 44.3281 40.9336 44.6953 41.2148 45.0078C41.5117 45.3047 41.8867 45.4766 42.3398 45.5234ZM49.7227 36.1484C50.1289 36.2266 50.4805 36.2891 50.7773 36.3359C51.0898 36.3672 51.3555 36.3984 51.5742 36.4297C51.8242 36.4609 52.043 36.4844 52.2305 36.5C52.418 36.5156 52.6367 36.5312 52.8867 36.5469C53.3086 36.5625 53.9023 36.5625 54.668 36.5469C54.2148 36.5156 53.8555 36.6328 53.5898 36.8984C53.3398 37.1484 53.1523 37.4375 53.0273 37.7656C52.8711 38.1562 52.7852 38.6094 52.7695 39.125C52.7383 39.8125 52.7539 40.4375 52.8164 41C52.8945 41.5469 53.0273 42.0156 53.2148 42.4062C53.418 42.7812 53.6836 43.0625 54.0117 43.25C54.3398 43.4219 54.7617 43.4688 55.2773 43.3906C55.793 43.3125 56.1836 43.1328 56.4492 42.8516C56.7305 42.5547 56.9336 42.1953 57.0586 41.7734C57.1836 41.3359 57.2539 40.8438 57.2695 40.2969C57.3008 39.75 57.3242 39.1797 57.3398 38.5859C57.3398 37.9922 57.332 37.5703 57.3164 37.3203C57.3164 37.0547 57.3086 36.8828 57.293 36.8047C57.2773 36.7266 57.2539 36.6953 57.2227 36.7109C57.1914 36.7109 57.1523 36.6719 57.1055 36.5938C57.0742 36.5312 57.0273 36.4688 56.9648 36.4062C56.918 36.3438 56.8555 36.2734 56.7773 36.1953C56.6992 36.1016 56.6133 36.0078 56.5195 35.9141C56.9258 35.9297 57.2852 35.9453 57.5977 35.9609C57.9258 35.9609 58.1992 35.9688 58.418 35.9844C58.668 36 58.8867 36.0156 59.0742 36.0312C59.2461 36.0469 59.4727 36.0703 59.7539 36.1016C59.9883 36.1328 60.293 36.1641 60.668 36.1953C61.043 36.2266 61.4883 36.2734 62.0039 36.3359C61.6445 36.4141 61.3555 36.5312 61.1367 36.6875C60.918 36.8438 60.7461 37 60.6211 37.1562C60.4805 37.3281 60.3789 37.5156 60.3164 37.7188C60.2695 37.9844 60.2695 38.3906 60.3164 38.9375C60.3477 39.4219 60.4258 40.0859 60.5508 40.9297C60.6758 41.7734 60.8711 42.8828 61.1367 44.2578L59.2852 45.3594L58.9102 42.2422C58.457 43.0078 57.9727 43.6016 57.457 44.0234C56.957 44.4297 56.4883 44.7266 56.0508 44.9141C55.5352 45.1328 55.0352 45.2578 54.5508 45.2891C53.9102 45.2891 53.3555 45.25 52.8867 45.1719C52.4336 45.0781 52.043 44.9609 51.7148 44.8203C51.3867 44.6797 51.1211 44.5234 50.918 44.3516C50.7305 44.1641 50.5898 43.9766 50.4961 43.7891C50.2773 43.3984 50.1602 42.8984 50.1445 42.2891C50.1289 41.6641 50.1523 41.0469 50.2148 40.4375C50.2773 39.8125 50.3477 39.2422 50.4258 38.7266C50.5039 38.2109 50.5273 37.8594 50.4961 37.6719C50.4648 37.5312 50.418 37.375 50.3555 37.2031C50.293 37.0625 50.2148 36.9062 50.1211 36.7344C50.0273 36.5469 49.8945 36.3516 49.7227 36.1484ZM62.1211 35.7031C62.418 35.7188 62.6836 35.7266 62.918 35.7266C63.168 35.7109 63.3789 35.6953 63.5508 35.6797C63.7539 35.6641 63.9336 35.6484 64.0898 35.6328C64.3242 35.6016 64.5664 35.5625 64.8164 35.5156C65.0352 35.4844 65.2617 35.4453 65.4961 35.3984C65.7461 35.3359 65.9883 35.2656 66.2227 35.1875C66.1289 35.4219 66.0508 35.625 65.9883 35.7969C65.9258 35.9688 65.8789 36.1172 65.8477 36.2422C65.8008 36.3828 65.7773 36.5 65.7773 36.5938C65.7617 36.7031 65.7539 36.8359 65.7539 36.9922C65.7383 37.2578 65.7383 37.6875 65.7539 38.2812C66.5664 37.5781 67.2461 37.0312 67.793 36.6406C68.3555 36.25 68.8008 35.9453 69.1289 35.7266C69.5195 35.4766 69.8242 35.3125 70.043 35.2344C70.6211 35.1406 71.1289 35.2734 71.5664 35.6328C71.7539 35.7891 71.9336 36 72.1055 36.2656C72.2773 36.5156 72.4258 36.8516 72.5508 37.2734C72.6758 37.6953 72.7695 38.2031 72.832 38.7969C72.8945 39.375 72.9023 40.0703 72.8555 40.8828C72.5273 40.9141 72.2305 40.9453 71.9648 40.9766C71.7148 41.0078 71.5039 41.0312 71.332 41.0469C71.1289 41.0781 70.9414 41.0938 70.7695 41.0938L70.1367 41.1641C69.918 41.1953 69.6445 41.2266 69.3164 41.2578C69.0039 41.2734 68.6211 41.3047 68.168 41.3516C68.8242 40.8203 69.2461 40.3594 69.4336 39.9688C69.6367 39.5625 69.7227 39.2266 69.6914 38.9609C69.6602 38.6641 69.5195 38.4062 69.2695 38.1875C68.9727 38.0156 68.6523 37.9531 68.3086 38C68.0117 38.0312 67.668 38.1641 67.2773 38.3984C66.8867 38.6328 66.4727 39.0703 66.0352 39.7109C66.0664 40.7109 66.0977 41.5391 66.1289 42.1953C66.1758 42.8516 66.2148 43.3828 66.2461 43.7891C66.293 44.2578 66.332 44.625 66.3633 44.8906C66.4102 45.125 66.5039 45.375 66.6445 45.6406C66.7539 45.8594 66.9102 46.1016 67.1133 46.3672C67.3164 46.6328 67.582 46.8984 67.9102 47.1641C67.2227 47.1328 66.6602 47.1328 66.2227 47.1641C65.957 47.1797 65.7227 47.1953 65.5195 47.2109C65.3008 47.2422 65.0664 47.2734 64.8164 47.3047C64.5977 47.3359 64.3398 47.3672 64.043 47.3984C63.7617 47.4453 63.4492 47.4922 63.1055 47.5391C63.2305 47.3672 63.332 47.1641 63.4102 46.9297C63.4883 46.7109 63.5508 46.5 63.5977 46.2969C63.6602 46.0625 63.707 45.8203 63.7383 45.5703C63.7539 45.3516 63.7617 45.0234 63.7617 44.5859C63.7773 44.1484 63.7695 43.6562 63.7383 43.1094C63.7227 42.5469 63.6992 41.9688 63.668 41.375C63.6367 40.7656 63.5977 40.1953 63.5508 39.6641C63.5039 39.1328 63.4492 38.6719 63.3867 38.2812C63.3398 37.875 63.2852 37.5938 63.2227 37.4375C63.1445 37.25 63.0508 37.0625 62.9414 36.875C62.8477 36.7031 62.7305 36.5234 62.5898 36.3359C62.4492 36.1328 62.293 35.9219 62.1211 35.7031ZM84.1758 33.5469C84.0352 33.8906 83.9102 34.2031 83.8008 34.4844C83.707 34.7656 83.6211 35.0156 83.543 35.2344C83.4648 35.4844 83.3945 35.7031 83.332 35.8906C83.2695 36.1094 83.1992 36.3594 83.1211 36.6406C83.043 36.8906 82.9414 37.2031 82.8164 37.5781C82.707 37.9375 82.5742 38.3672 82.418 38.8672C82.293 38.1172 82.0664 37.5234 81.7383 37.0859C81.4102 36.6328 81.0742 36.2812 80.7305 36.0312C80.3242 35.75 79.8867 35.5469 79.418 35.4219C78.5742 35.2812 77.9648 35.2969 77.5898 35.4688C77.2148 35.6406 76.9648 35.8594 76.8398 36.125C76.7773 36.2344 76.707 36.375 76.6289 36.5469C76.5664 36.7031 76.5117 36.8672 76.4648 37.0391C76.4336 37.2109 76.4258 37.3828 76.4414 37.5547C76.457 37.7266 76.5273 37.8672 76.6523 37.9766C76.7305 38.0547 76.9336 38.1641 77.2617 38.3047C77.5898 38.4297 77.9805 38.5781 78.4336 38.75C78.9023 38.9062 79.3945 39.0781 79.9102 39.2656C80.4414 39.4531 80.9414 39.6406 81.4102 39.8281C81.8789 40.0156 82.2852 40.2031 82.6289 40.3906C82.9727 40.5781 83.1992 40.75 83.3086 40.9062C83.4023 41.0625 83.5039 41.2734 83.6133 41.5391C83.7383 41.7891 83.8242 42.0703 83.8711 42.3828C83.9336 42.6797 83.9492 42.9922 83.918 43.3203C83.9023 43.6328 83.8164 43.9453 83.6602 44.2578C83.5039 44.5703 83.2539 44.8594 82.9102 45.125C82.582 45.3906 82.1367 45.6094 81.5742 45.7812C80.918 45.9844 80.2852 46.0391 79.6758 45.9453C79.0664 45.8516 78.5039 45.7109 77.9883 45.5234C77.4883 45.3359 77.0508 45.1562 76.6758 44.9844C76.3008 44.7969 76.0352 44.7188 75.8789 44.75C75.707 44.7812 75.5117 44.8672 75.293 45.0078C75.0742 45.1484 74.8633 45.2969 74.6602 45.4531C74.4727 45.5938 74.3086 45.7266 74.168 45.8516C74.0273 45.9609 73.957 46 73.957 45.9688C73.957 45.9375 73.9805 45.8438 74.0273 45.6875C74.0898 45.5312 74.1523 45.3438 74.2148 45.125C74.293 44.8906 74.3633 44.6406 74.4258 44.375C74.5039 44.0938 74.5586 43.8281 74.5898 43.5781C74.6211 43.375 74.6602 43.125 74.707 42.8281C74.7383 42.5625 74.7773 42.2422 74.8242 41.8672C74.8867 41.4766 74.957 41.0078 75.0352 40.4609C75.1133 40.8672 75.2227 41.2188 75.3633 41.5156C75.5195 41.8125 75.668 42.0703 75.8086 42.2891C75.9805 42.5391 76.1445 42.75 76.3008 42.9219C76.5352 43.1406 76.8086 43.3438 77.1211 43.5312C77.4492 43.7188 77.7773 43.8828 78.1055 44.0234C78.4336 44.1484 78.7461 44.2266 79.043 44.2578C79.3398 44.2891 79.5898 44.2578 79.793 44.1641C79.9961 44.0703 80.168 43.8984 80.3086 43.6484C80.4648 43.3984 80.5742 43.125 80.6367 42.8281C80.6992 42.5312 80.7227 42.25 80.707 41.9844C80.6914 41.7031 80.6211 41.4766 80.4961 41.3047C80.4023 41.1953 80.1836 41.0547 79.8398 40.8828C79.5117 40.7109 79.1133 40.5234 78.6445 40.3203C78.1914 40.1172 77.707 39.9062 77.1914 39.6875C76.6914 39.4688 76.2148 39.25 75.7617 39.0312C75.3242 38.7969 74.957 38.5781 74.6602 38.375C74.3789 38.1562 74.2227 37.9609 74.1914 37.7891C74.1602 37.5391 74.1367 37.2656 74.1211 36.9688C74.1055 36.6562 74.1211 36.3516 74.168 36.0547C74.2305 35.7422 74.3398 35.4453 74.4961 35.1641C74.668 34.8828 74.918 34.6484 75.2461 34.4609C75.4648 34.3359 75.7539 34.2422 76.1133 34.1797C76.4727 34.1172 76.8711 34.0859 77.3086 34.0859C77.7461 34.0703 78.1992 34.0859 78.668 34.1328C79.1367 34.1641 79.582 34.2109 80.0039 34.2734C80.4414 34.3203 80.832 34.3828 81.1758 34.4609C81.5352 34.5391 81.8086 34.6094 81.9961 34.6719C82.2148 34.75 82.4492 34.7578 82.6992 34.6953C82.918 34.6484 83.1523 34.5469 83.4023 34.3906C83.6523 34.2344 83.9102 33.9531 84.1758 33.5469ZM91.1133 43.1562C91.5508 43.1562 91.957 43.1094 92.332 43.0156C92.6445 42.9375 92.9414 42.8125 93.2227 42.6406C93.5195 42.4531 93.7148 42.1797 93.8086 41.8203C94.1211 41.8828 94.3867 41.9375 94.6055 41.9844C94.8242 42.0156 95.0117 42.0469 95.168 42.0781C95.3398 42.125 95.4883 42.1562 95.6133 42.1719C95.7383 42.2031 95.8867 42.2344 96.0586 42.2656C96.2148 42.2969 96.4023 42.3359 96.6211 42.3828C96.8555 42.4141 97.1289 42.4609 97.4414 42.5234C97.207 42.4922 96.9648 42.5156 96.7148 42.5938C96.4805 42.6719 96.2539 42.7578 96.0352 42.8516C95.7852 42.9609 95.5508 43.0938 95.332 43.25C95.1914 43.3438 95.0273 43.4844 94.8398 43.6719C94.668 43.8594 94.418 44.0391 94.0898 44.2109C93.7617 44.3828 93.3242 44.5312 92.7773 44.6562C92.2461 44.7656 91.5586 44.8047 90.7148 44.7734C89.6992 44.7422 88.8477 44.5625 88.1602 44.2344C87.4727 43.8906 86.918 43.4766 86.4961 42.9922C86.0742 42.4922 85.7695 41.9531 85.582 41.375C85.3945 40.7969 85.293 40.2578 85.2773 39.7578C85.2617 39.2578 85.4102 38.7344 85.7227 38.1875C86.0352 37.6406 86.4727 37.1406 87.0352 36.6875C87.6133 36.2344 88.3086 35.8672 89.1211 35.5859C89.9336 35.2891 90.8242 35.1406 91.793 35.1406C92.3555 35.1406 92.8711 35.2109 93.3398 35.3516C93.8242 35.4766 94.2617 35.6484 94.6523 35.8672C95.0586 36.0859 95.4102 36.3359 95.707 36.6172C96.0039 36.8828 96.2539 37.1562 96.457 37.4375C96.6602 37.7344 96.832 38.0469 96.9727 38.375C97.0977 38.6562 97.1992 38.9766 97.2773 39.3359C97.3555 39.6953 97.3789 40.0625 97.3477 40.4375C96.1602 40.4688 95.1992 40.4922 94.4648 40.5078C93.7461 40.5234 93.1836 40.5312 92.7773 40.5312H91.7227H90.9258C90.6445 40.5312 90.2773 40.5391 89.8242 40.5547C89.3711 40.5703 88.8164 40.5938 88.1602 40.625C88.2383 41.25 88.4336 41.7344 88.7461 42.0781C89.0742 42.4062 89.418 42.6562 89.7773 42.8281C90.1836 43.0156 90.6289 43.125 91.1133 43.1562ZM89.0039 38.9375C89.5039 38.9688 89.918 38.9922 90.2461 39.0078C90.5898 39.0234 90.8711 39.0391 91.0898 39.0547C91.3242 39.0703 91.5117 39.0781 91.6523 39.0781H92.2383C92.6289 39.0781 93.3555 39.0547 94.418 39.0078C94.3711 38.3203 94.2227 37.7969 93.9727 37.4375C93.7383 37.0781 93.4883 36.8125 93.2227 36.6406C92.9102 36.4531 92.5664 36.3438 92.1914 36.3125C91.1758 36.3281 90.418 36.5391 89.918 36.9453C89.4336 37.3516 89.1289 38.0156 89.0039 38.9375Z" fill="#3A10E5"/>
</svg>
